<svg width="47" height="50" viewBox="0 0 47 50" fill="none" xmlns="http://www.w3.org/2000/svg">
<path d="M44.9043 38.7436C44.4783 38.074 30.7782 16.5454 30.356 15.882V8.78906C32.7791 8.78906 34.7505 6.81768 34.7505 4.39453C34.7505 1.97139 32.7792 0 30.356 0H15.7076C13.2844 0 11.313 1.97139 11.313 4.39453C11.313 6.81768 13.2844 8.78906 15.7076 8.78906V15.882L1.15932 38.7436C-1.94712 43.6253 1.55317 50 7.33852 50H38.7251C44.5114 50 48.0103 43.6244 44.9043 38.7436ZM18.4083 17.095C18.5579 16.86 18.6374 16.5872 18.6374 16.3086V8.78906C19.4463 8.78906 20.1022 8.1332 20.1022 7.32422C20.1022 6.51523 19.4463 5.85938 18.6374 5.85938H15.7077C14.9 5.85938 14.2428 5.20225 14.2428 4.39453C14.2428 3.58682 14.9 2.92969 15.7077 2.92969H30.3561C31.1638 2.92969 31.8209 3.58682 31.8209 4.39453C31.8209 5.20225 31.1638 5.85938 30.3561 5.85938H27.4264C26.6174 5.85938 25.9616 6.51523 25.9616 7.32422C25.9616 8.1332 26.6174 8.78906 27.4264 8.78906V16.3086C27.4264 16.5872 27.5058 16.86 27.6554 17.095L31.6381 23.3535C28.2293 22.6242 24.6029 23.2663 21.5784 25.2827L17.0011 28.3343C14.9708 29.6879 12.5711 30.261 10.1977 29.9978L18.4083 17.095ZM38.7251 47.0703H7.33852C3.86684 47.0703 1.76733 43.245 3.631 40.3165L8.49057 32.68C9.43052 32.8871 10.3809 32.9913 11.3272 32.9913C13.8943 32.9913 16.4287 32.2368 18.6259 30.772L23.2032 27.7204C26.5681 25.4771 30.8903 25.4193 34.3053 27.5452L42.4325 40.3165C44.2966 43.2454 42.1963 47.0703 38.7251 47.0703Z" fill="#7EA0A6"/>
<path d="M11.0154 43C10.9488 43 10.8888 42.9767 10.8354 42.93C10.7888 42.8767 10.7654 42.8167 10.7654 42.75V36.25C10.7654 36.1767 10.7888 36.1167 10.8354 36.07C10.8888 36.0233 10.9488 36 11.0154 36H15.6154C15.6888 36 15.7488 36.0233 15.7954 36.07C15.8421 36.1167 15.8654 36.1767 15.8654 36.25V37.26C15.8654 37.3267 15.8421 37.3867 15.7954 37.44C15.7488 37.4867 15.6888 37.51 15.6154 37.51H12.5254V38.98H15.4154C15.4888 38.98 15.5488 39.0067 15.5954 39.06C15.6421 39.1067 15.6654 39.1667 15.6654 39.24V40.24C15.6654 40.3067 15.6421 40.3667 15.5954 40.42C15.5488 40.4667 15.4888 40.49 15.4154 40.49H12.5254V42.75C12.5254 42.8233 12.5021 42.8833 12.4554 42.93C12.4088 42.9767 12.3488 43 12.2754 43H11.0154Z" fill="#7EA0A6"/>
<path d="M17.1971 43C17.1304 43 17.0704 42.9767 17.0171 42.93C16.9704 42.8767 16.9471 42.8167 16.9471 42.75V36.25C16.9471 36.1767 16.9704 36.1167 17.0171 36.07C17.0704 36.0233 17.1304 36 17.1971 36H19.9171C20.7904 36 21.4704 36.2 21.9571 36.6C22.4504 36.9933 22.6971 37.5533 22.6971 38.28C22.6971 38.7467 22.5871 39.1433 22.3671 39.47C22.1471 39.7967 21.8437 40.0467 21.4571 40.22L22.8271 42.68C22.8471 42.72 22.8571 42.7567 22.8571 42.79C22.8571 42.8433 22.8337 42.8933 22.7871 42.94C22.7471 42.98 22.7004 43 22.6471 43H21.3171C21.1237 43 20.9871 42.91 20.9071 42.73L19.7671 40.53H18.7471V42.75C18.7471 42.8233 18.7204 42.8833 18.6671 42.93C18.6204 42.9767 18.5604 43 18.4871 43H17.1971ZM19.8971 39.11C20.2037 39.11 20.4371 39.0367 20.5971 38.89C20.7571 38.7367 20.8371 38.5267 20.8371 38.26C20.8371 37.9933 20.7571 37.7833 20.5971 37.63C20.4437 37.47 20.2104 37.39 19.8971 37.39H18.7471V39.11H19.8971Z" fill="#7EA0A6"/>
<path d="M24.1111 43C24.0445 43 23.9845 42.9767 23.9311 42.93C23.8845 42.8767 23.8611 42.8167 23.8611 42.75V36.25C23.8611 36.1767 23.8845 36.1167 23.9311 36.07C23.9845 36.0233 24.0445 36 24.1111 36H28.7811C28.8545 36 28.9145 36.0233 28.9611 36.07C29.0078 36.1167 29.0311 36.1767 29.0311 36.25V37.19C29.0311 37.2567 29.0078 37.3167 28.9611 37.37C28.9145 37.4167 28.8545 37.44 28.7811 37.44H25.5911V38.79H28.5611C28.6345 38.79 28.6945 38.8167 28.7411 38.87C28.7878 38.9167 28.8111 38.9767 28.8111 39.05V39.92C28.8111 39.9867 28.7878 40.0467 28.7411 40.1C28.6945 40.1467 28.6345 40.17 28.5611 40.17H25.5911V41.56H28.8611C28.9345 41.56 28.9945 41.5833 29.0411 41.63C29.0878 41.6767 29.1111 41.7367 29.1111 41.81V42.75C29.1111 42.8167 29.0878 42.8767 29.0411 42.93C28.9945 42.9767 28.9345 43 28.8611 43H24.1111Z" fill="#7EA0A6"/>
<path d="M30.4978 43C30.4312 43 30.3712 42.9767 30.3178 42.93C30.2712 42.8767 30.2478 42.8167 30.2478 42.75V36.25C30.2478 36.1767 30.2712 36.1167 30.3178 36.07C30.3712 36.0233 30.4312 36 30.4978 36H35.1678C35.2412 36 35.3012 36.0233 35.3478 36.07C35.3945 36.1167 35.4178 36.1767 35.4178 36.25V37.19C35.4178 37.2567 35.3945 37.3167 35.3478 37.37C35.3012 37.4167 35.2412 37.44 35.1678 37.44H31.9778V38.79H34.9478C35.0212 38.79 35.0812 38.8167 35.1278 38.87C35.1745 38.9167 35.1978 38.9767 35.1978 39.05V39.92C35.1978 39.9867 35.1745 40.0467 35.1278 40.1C35.0812 40.1467 35.0212 40.17 34.9478 40.17H31.9778V41.56H35.2478C35.3212 41.56 35.3812 41.5833 35.4278 41.63C35.4745 41.6767 35.4978 41.7367 35.4978 41.81V42.75C35.4978 42.8167 35.4745 42.8767 35.4278 42.93C35.3812 42.9767 35.3212 43 35.2478 43H30.4978Z" fill="#7EA0A6"/>
</svg>
