<svg width="54" height="51" viewBox="0 0 54 51" fill="none" xmlns="http://www.w3.org/2000/svg">
<path d="M45.214 9.39302H37.5226V5.33337C37.5226 2.40108 35.137 0.0155029 32.2048 0.0155029H20.9209C17.9887 0.0155029 15.6031 2.40108 15.6031 5.33337V9.39292H7.91168C3.54915 9.39302 0 12.9422 0 17.3047V42.1038C0 46.4664 3.54915 50.0155 7.91168 50.0155H45.214C49.5766 50.0155 53.1257 46.4664 53.1257 42.1038V17.3047C53.1257 12.9422 49.5766 9.39302 45.214 9.39302ZM18.7159 5.33337C18.7159 4.11749 19.7051 3.12834 20.9209 3.12834H32.2048C33.4206 3.12834 34.4098 4.11749 34.4098 5.33337V9.39292H18.7159V5.33337ZM3.11283 42.1037V17.3047C3.11283 15.2033 4.47107 13.4144 6.35527 12.7664V46.6422C4.47107 45.994 3.11283 44.2051 3.11283 42.1037ZM9.4681 46.9027V12.5059H43.6576V46.9027H9.4681ZM50.0129 42.1037C50.0129 44.2051 48.6546 45.994 46.7704 46.642V12.7663C48.6546 13.4144 50.0129 15.2033 50.0129 17.3047V42.1037Z" fill="#7EA0A6"/>
<path d="M35.9403 25.0219H31.2451V20.3267C31.2451 19.4672 30.5482 18.7703 29.6887 18.7703H23.4371C22.5775 18.7703 21.8806 19.4672 21.8806 20.3267V25.0219H17.1854C16.3259 25.0219 15.629 25.7188 15.629 26.5784V32.83C15.629 33.6895 16.3259 34.3864 17.1854 34.3864H21.8806V39.0816C21.8806 39.9411 22.5775 40.638 23.4371 40.638H29.6887C30.5482 40.638 31.2451 39.9411 31.2451 39.0816V34.3864H35.9403C36.7998 34.3864 37.4967 33.6895 37.4967 32.83V26.5784C37.4967 25.7188 36.7998 25.0219 35.9403 25.0219ZM34.3839 31.2735H29.6887C28.8291 31.2735 28.1322 31.9704 28.1322 32.83V37.5252H24.9935V32.83C24.9935 31.9704 24.2966 31.2735 23.4371 31.2735H18.7419V28.1348H23.4371C24.2966 28.1348 24.9935 27.4379 24.9935 26.5784V21.8832H28.1322V26.5784C28.1322 27.4379 28.8291 28.1348 29.6887 28.1348H34.3839V31.2735Z" fill="#7EA0A6"/>
</svg>
