<svg width="47" height="50" viewBox="0 0 47 50" fill="none" xmlns="http://www.w3.org/2000/svg">
<path d="M44.9043 38.7436C44.4783 38.074 30.7782 16.5454 30.356 15.882V8.78906C32.7791 8.78906 34.7505 6.81768 34.7505 4.39453C34.7505 1.97139 32.7792 0 30.356 0H15.7076C13.2844 0 11.313 1.97139 11.313 4.39453C11.313 6.81768 13.2844 8.78906 15.7076 8.78906V15.882L1.15932 38.7436C-1.94712 43.6253 1.55317 50 7.33852 50H38.7251C44.5114 50 48.0103 43.6244 44.9043 38.7436ZM18.4083 17.095C18.5579 16.86 18.6374 16.5872 18.6374 16.3086V8.78906C19.4463 8.78906 20.1022 8.1332 20.1022 7.32422C20.1022 6.51523 19.4463 5.85938 18.6374 5.85938H15.7077C14.9 5.85938 14.2428 5.20225 14.2428 4.39453C14.2428 3.58682 14.9 2.92969 15.7077 2.92969H30.3561C31.1638 2.92969 31.8209 3.58682 31.8209 4.39453C31.8209 5.20225 31.1638 5.85938 30.3561 5.85938H27.4264C26.6174 5.85938 25.9616 6.51523 25.9616 7.32422C25.9616 8.1332 26.6174 8.78906 27.4264 8.78906V16.3086C27.4264 16.5872 27.5058 16.86 27.6554 17.095L31.6381 23.3535C28.2293 22.6242 24.6029 23.2663 21.5784 25.2827L17.0011 28.3343C14.9708 29.6879 12.5711 30.261 10.1977 29.9978L18.4083 17.095ZM38.7251 47.0703H7.33852C3.86684 47.0703 1.76733 43.245 3.631 40.3165L8.49057 32.68C9.43052 32.8871 10.3809 32.9913 11.3272 32.9913C13.8943 32.9913 16.4287 32.2368 18.6259 30.772L23.2032 27.7204C26.5681 25.4771 30.8903 25.4193 34.3053 27.5452L42.4325 40.3165C44.2966 43.2454 42.1963 47.0703 38.7251 47.0703Z" fill="#7EA0A6"/>
<path d="M14.2427 35.3516C11.8196 35.3516 9.84818 37.3229 9.84818 39.7461C9.84818 42.1692 11.8196 44.1406 14.2427 44.1406C16.6659 44.1406 18.6372 42.1692 18.6372 39.7461C18.6372 37.3229 16.6659 35.3516 14.2427 35.3516ZM14.2427 41.2109C13.435 41.2109 12.7779 40.5538 12.7779 39.7461C12.7779 38.9384 13.435 38.2812 14.2427 38.2812C15.0504 38.2812 15.7076 38.9384 15.7076 39.7461C15.7076 40.5538 15.0505 41.2109 14.2427 41.2109Z" fill="#7EA0A6"/>
<path d="M28.8911 29.4922C26.468 29.4922 24.4966 31.4636 24.4966 33.8867C24.4966 36.3099 26.468 38.2812 28.8911 38.2812C31.3143 38.2812 33.2857 36.3099 33.2857 33.8867C33.2857 31.4636 31.3144 29.4922 28.8911 29.4922ZM28.8911 35.3516C28.0834 35.3516 27.4263 34.6944 27.4263 33.8867C27.4263 33.079 28.0834 32.4219 28.8911 32.4219C29.6989 32.4219 30.356 33.079 30.356 33.8867C30.356 34.6944 29.699 35.3516 28.8911 35.3516Z" fill="#7EA0A6"/>
<path d="M23.0318 41.2109C23.8408 41.2109 24.4966 40.5551 24.4966 39.7461C24.4966 38.9371 23.8408 38.2812 23.0318 38.2812C22.2228 38.2812 21.5669 38.9371 21.5669 39.7461C21.5669 40.5551 22.2228 41.2109 23.0318 41.2109Z" fill="#7EA0A6"/>
<path d="M34.7505 41.2109C35.5596 41.2109 36.2154 40.5551 36.2154 39.7461C36.2154 38.9371 35.5596 38.2812 34.7505 38.2812C33.9415 38.2812 33.2857 38.9371 33.2857 39.7461C33.2857 40.5551 33.9415 41.2109 34.7505 41.2109Z" fill="#7EA0A6"/>
<path d="M28.8911 44.1406C29.7002 44.1406 30.356 43.4848 30.356 42.6758C30.356 41.8668 29.7002 41.2109 28.8911 41.2109C28.0821 41.2109 27.4263 41.8668 27.4263 42.6758C27.4263 43.4848 28.0821 44.1406 28.8911 44.1406Z" fill="#7EA0A6"/>
</svg>
