<svg width="50" height="50" viewBox="0 0 50 50" fill="none" xmlns="http://www.w3.org/2000/svg">
<path d="M27.2137 40.6953C26.6851 40.6953 26.2567 41.1239 26.2567 41.6524V48.543C26.2567 49.0715 26.6851 49.5 27.2137 49.5C27.7422 49.5 28.1707 49.0714 28.1707 48.543V41.6524C28.1707 41.1238 27.7422 40.6953 27.2137 40.6953Z" fill="white"/>
<path d="M6.05374 47.15C5.73486 47.4392 5.32649 47.5859 4.84003 47.5859C3.50239 47.5859 2.41406 46.4698 2.41406 45.0977C2.41406 43.7256 3.50239 42.6094 4.84003 42.6094C5.26409 42.6094 5.68097 42.723 6.0457 42.9378C6.50096 43.2059 7.08781 43.0544 7.35606 42.599C7.62432 42.1436 7.47263 41.5569 7.01718 41.2887C6.35826 40.9005 5.60546 40.6954 4.84003 40.6954C2.44698 40.6953 0.5 42.6702 0.5 45.0977C0.5 47.5251 2.44698 49.5 4.84003 49.5C5.803 49.5 6.66739 49.1776 7.33979 48.5677C7.73131 48.2125 7.76069 47.6073 7.40564 47.2159C7.05048 46.8243 6.44526 46.7948 6.05374 47.15Z" fill="white"/>
<path d="M23.6874 40.7567C23.1858 40.5901 22.6441 40.8616 22.4774 41.3632L20.9719 45.8952L19.3902 41.3385C19.2168 40.8392 18.6716 40.5746 18.1722 40.7482C17.6729 40.9216 17.4086 41.4668 17.5819 41.9662L19.9401 48.7596C20.0976 49.2033 20.5183 49.4999 20.9885 49.4999H20.9958C21.469 49.4967 21.8893 49.1937 22.044 48.7392L24.2939 41.9666C24.4605 41.4651 24.189 40.9234 23.6874 40.7567Z" fill="white"/>
<path d="M13.0573 40.7025C11.2244 40.7025 9.73315 42.1937 9.73315 44.0266V46.1759C9.73315 48.0088 11.2244 49.4999 13.0573 49.4999C14.8902 49.4999 16.3814 48.0088 16.3814 46.1759V44.0266C16.3814 42.1937 14.8902 40.7025 13.0573 40.7025ZM14.4674 46.1759C14.4674 46.9533 13.8349 47.5858 13.0574 47.5858C12.2799 47.5858 11.6473 46.9533 11.6473 46.1759V44.0266C11.6473 43.2491 12.2798 42.6166 13.0574 42.6166C13.8349 42.6166 14.4674 43.2491 14.4674 44.0266V46.1759Z" fill="white"/>
<path d="M40.4127 40.6953H39.203C38.6744 40.6953 38.246 41.1239 38.246 41.6524C38.246 42.1809 38.6744 42.6094 39.203 42.6094H39.4557V48.543C39.4557 49.0715 39.8841 49.5 40.4127 49.5C40.9413 49.5 41.3697 49.0714 41.3697 48.543V41.6524C41.3697 41.1238 40.9413 40.6953 40.4127 40.6953Z" fill="white"/>
<path d="M49.5018 43.7014C49.5018 42.0749 48.1786 40.7517 46.5521 40.7517C44.9257 40.7517 43.6025 42.0749 43.6025 43.7014C43.6025 45.312 44.9005 46.6245 46.5053 46.6498C46.0019 47.3655 45.5132 47.7479 45.4968 47.7604C45.0761 48.0767 44.9894 48.6738 45.3039 49.0966C45.4917 49.3492 45.7803 49.4826 46.0725 49.4826C46.2711 49.4826 46.4713 49.4209 46.6429 49.2933C46.742 49.2196 49.0582 47.4608 49.4649 44.1658C49.4889 44.0145 49.5018 43.8594 49.5018 43.7014ZM45.5166 43.7014C45.5166 43.1303 45.9811 42.6658 46.5521 42.6658C47.1232 42.6658 47.5877 43.1303 47.5877 43.7014C47.5877 44.2724 47.1232 44.7369 46.5521 44.7369C45.9811 44.7369 45.5166 44.2724 45.5166 43.7014Z" fill="white"/>
<path d="M41.0084 17.3845C39.8622 17.3845 38.8818 18.1053 38.4952 19.1172H37.2993C37.1957 17.7557 36.8701 16.4346 36.3274 15.1785C36.1178 14.6933 35.5544 14.4699 35.0693 14.6795C34.5841 14.8891 34.3607 15.4524 34.5703 15.9376C35.1352 17.2452 35.4216 18.637 35.4216 20.0743C35.4216 22.609 34.5134 24.9354 33.0057 26.7459L32.403 26.1432C32.0293 25.7697 31.4233 25.7696 31.0496 26.1432C30.6759 26.5169 30.6758 27.1229 31.0495 27.4966L31.6522 28.0993C29.8417 29.607 27.5153 30.5152 24.9806 30.5152C22.4459 30.5152 20.1195 29.607 18.3091 28.0993L18.4027 28.0057C18.7764 27.632 18.7764 27.026 18.4027 26.6522C18.0289 26.2785 17.423 26.2785 17.0491 26.6522L16.9555 26.7458C15.4478 24.9353 14.5396 22.6089 14.5396 20.0742C14.5396 17.5395 15.4478 15.2132 16.9555 13.4027L17.7428 14.1899C17.9297 14.3768 18.1746 14.4702 18.4195 14.4702C18.6644 14.4702 18.9094 14.3768 19.0962 14.1899C19.4699 13.8162 19.4699 13.2102 19.0962 12.8364L18.309 12.0491C20.1195 10.5414 22.4458 9.63322 24.9805 9.63322C26.4031 9.63322 27.7817 9.91401 29.0779 10.4677C29.5642 10.6753 30.1264 10.4495 30.334 9.96349C30.5416 9.47741 30.3159 8.91506 29.8298 8.70748C28.5874 8.17681 27.2819 7.85802 25.9375 7.75562V6.58537C27.1899 6.18045 28.0984 5.00368 28.0984 3.6181C28.0984 1.89879 26.6996 0.5 24.9804 0.5C23.2611 0.5 21.8623 1.89879 21.8623 3.6181C21.8623 5.00359 22.7709 6.18035 24.0234 6.58537V7.75601C21.335 7.96292 18.8852 9.0344 16.9514 10.6917L16.1897 9.92999C16.3865 9.53263 16.4977 9.08561 16.4977 8.61293C16.4977 6.97057 15.1616 5.63437 13.5191 5.63437C11.8768 5.63437 10.5406 6.97057 10.5406 8.61293C10.5406 10.2553 11.8768 11.5915 13.5191 11.5915C13.9918 11.5915 14.4388 11.4803 14.8362 11.2835L15.5979 12.0452C13.9406 13.979 12.8691 16.4288 12.6622 19.1172H11.4658C11.0792 18.1053 10.0988 17.3845 8.95267 17.3845C7.46947 17.3845 6.26294 18.5911 6.26294 20.0742C6.26294 21.5573 7.46956 22.7639 8.95267 22.7639C10.0988 22.7639 11.0792 22.0431 11.4658 21.0312H12.6621C12.869 23.7196 13.9406 26.1694 15.5979 28.1032L14.1425 29.5586C13.7452 29.3618 13.2982 29.2506 12.8255 29.2506C11.1831 29.2506 9.84692 30.5867 9.84692 32.2291C9.84692 33.8714 11.1831 35.2076 12.8255 35.2076C14.4678 35.2076 15.804 33.8714 15.804 32.2291C15.804 31.7564 15.6928 31.3094 15.4961 30.912L16.9514 29.4566C18.8853 31.1139 21.335 32.1854 24.0234 32.3923V33.5887C23.0114 33.9754 22.2907 34.9558 22.2907 36.1019C22.2907 37.585 23.4973 38.7916 24.9804 38.7916C26.4635 38.7916 27.6702 37.585 27.6702 36.1019C27.6702 34.9557 26.9493 33.9754 25.9375 33.5887V32.3923C28.6258 32.1854 31.0756 31.1138 33.0094 29.4566L33.7078 30.1551C33.511 30.5524 33.3998 30.9995 33.3998 31.4721C33.3998 33.1145 34.736 34.4507 36.3784 34.4507C38.0207 34.4507 39.3569 33.1145 39.3569 31.4721C39.3569 29.8298 38.0208 28.4937 36.3784 28.4937C35.9057 28.4937 35.4587 28.6049 35.0613 28.8017L34.3629 28.1032C36.0201 26.1694 37.0916 23.7196 37.2985 21.0312H38.4948C38.8815 22.0432 39.8619 22.7639 41.0081 22.7639C42.4912 22.7639 43.6978 21.5573 43.6978 20.0742C43.698 18.591 42.4915 17.3845 41.0084 17.3845ZM24.9806 2.41415C25.6445 2.41415 26.1846 2.9543 26.1846 3.61819C26.1846 4.28208 25.6445 4.82223 24.9806 4.82223C24.3167 4.82223 23.7766 4.28208 23.7766 3.61819C23.7766 2.9543 24.3167 2.41415 24.9806 2.41415ZM13.5193 9.67743C12.9324 9.67743 12.4548 9.19987 12.4548 8.61293C12.4548 8.02598 12.9324 7.54843 13.5193 7.54843C14.1063 7.54843 14.5838 8.02598 14.5838 8.61293C14.5838 9.19987 14.1063 9.67743 13.5193 9.67743ZM8.95286 20.8499C8.52517 20.8499 8.17719 20.5019 8.17719 20.0742C8.17719 19.6465 8.52517 19.2985 8.95286 19.2985C9.38056 19.2985 9.72853 19.6465 9.72853 20.0742C9.72853 20.5019 9.38065 20.8499 8.95286 20.8499ZM12.8258 33.2936C12.2388 33.2936 11.7613 32.816 11.7613 32.2291C11.7613 31.6421 12.2388 31.1647 12.8258 31.1647C13.4127 31.1647 13.8903 31.6421 13.8903 32.2291C13.8902 32.816 13.4126 33.2936 12.8258 33.2936ZM24.9806 36.8776C24.5529 36.8776 24.2049 36.5297 24.2049 36.102C24.2049 35.6743 24.5529 35.3263 24.9806 35.3263C25.4083 35.3263 25.7563 35.6743 25.7563 36.102C25.7563 36.5297 25.4083 36.8776 24.9806 36.8776ZM36.3785 30.4077C36.9655 30.4077 37.4431 30.8852 37.4431 31.4721C37.4431 32.0591 36.9655 32.5367 36.3785 32.5367C35.7916 32.5367 35.314 32.0591 35.314 31.4721C35.314 30.8852 35.7916 30.4077 36.3785 30.4077ZM41.0084 20.8499C40.5807 20.8499 40.2326 20.5019 40.2326 20.0742C40.2326 19.6465 40.5806 19.2985 41.0084 19.2985C41.4361 19.2985 41.784 19.6465 41.784 20.0742C41.7839 20.5019 41.4361 20.8499 41.0084 20.8499Z" fill="white"/>
<path d="M16.769 20.0742C16.769 21.7166 18.1052 23.0528 19.7475 23.0528C21.3899 23.0528 22.7261 21.7166 22.7261 20.0742C22.7261 18.4319 21.3899 17.0957 19.7475 17.0957C18.1052 17.0957 16.769 18.4318 16.769 20.0742ZM20.812 20.0742C20.812 20.6612 20.3344 21.1387 19.7474 21.1387C19.1605 21.1387 18.6829 20.6612 18.6829 20.0742C18.6829 19.4873 19.1605 19.0097 19.7474 19.0097C20.3344 19.0097 20.812 19.4873 20.812 20.0742Z" fill="white"/>
<path d="M27.0143 13.0526C25.3719 13.0526 24.0357 14.3887 24.0357 16.0312C24.0357 17.6735 25.3718 19.0097 27.0143 19.0097C28.6566 19.0097 29.9928 17.6735 29.9928 16.0312C29.9928 14.3888 28.6566 13.0526 27.0143 13.0526ZM27.0143 17.0957C26.4273 17.0957 25.9498 16.6181 25.9498 16.0312C25.9498 15.4442 26.4273 14.9666 27.0143 14.9666C27.6012 14.9666 28.0788 15.4442 28.0788 16.0312C28.0788 16.6181 27.6013 17.0957 27.0143 17.0957Z" fill="white"/>
<path d="M26.1872 22.3288C24.5448 22.3288 23.2086 23.6649 23.2086 25.3073C23.2086 26.9496 24.5448 28.2858 26.1872 28.2858C27.8295 28.2858 29.1656 26.9496 29.1656 25.3073C29.1656 23.665 27.8295 22.3288 26.1872 22.3288ZM26.1872 26.3719C25.6002 26.3719 25.1227 25.8943 25.1227 25.3074C25.1227 24.7204 25.6002 24.2429 26.1872 24.2429C26.7741 24.2429 27.2516 24.7205 27.2516 25.3074C27.2516 25.8943 26.7741 26.3719 26.1872 26.3719Z" fill="white"/>
<path d="M37.5138 10.5195C39.1562 10.5195 40.4924 9.18341 40.4924 7.54096C40.4924 5.8985 39.1562 4.5624 37.5138 4.5624C35.8714 4.5624 34.5353 5.8986 34.5353 7.54096C34.5353 9.18332 35.8714 10.5195 37.5138 10.5195ZM37.5138 6.47655C38.1008 6.47655 38.5783 6.95411 38.5783 7.54105C38.5783 8.128 38.1008 8.60556 37.5138 8.60556C36.9269 8.60556 36.4494 8.128 36.4494 7.54105C36.4493 6.95401 36.9269 6.47655 37.5138 6.47655Z" fill="white"/>
<path d="M33.0237 12.9559C33.2754 12.9559 33.5223 12.8535 33.7004 12.6755C33.8784 12.4975 33.9808 12.2505 33.9808 11.9979C33.9808 11.7462 33.8784 11.4992 33.7004 11.3212C33.5223 11.1432 33.2754 11.0408 33.0237 11.0408C32.772 11.0408 32.5251 11.1432 32.3471 11.3212C32.1691 11.4992 32.0667 11.7462 32.0667 11.9979C32.0667 12.2505 32.1691 12.4975 32.3471 12.6755C32.5251 12.8534 32.772 12.9559 33.0237 12.9559Z" fill="white"/>
<path d="M32.5922 40.6953H31.0418C30.7877 40.6953 30.544 40.7965 30.3644 40.9763C30.1849 41.1562 30.0843 41.4001 30.0848 41.6542V48.5464C30.0857 48.8005 30.2016 49.0438 30.382 49.2227C30.5613 49.4004 30.8035 49.5 31.0558 49.5H31.0608C31.1033 49.4997 32.11 49.4944 32.666 49.4847C34.7901 49.4476 36.3318 47.6025 36.3318 45.0977C36.3319 42.4645 34.8291 40.6953 32.5922 40.6953ZM32.6326 47.571C32.4581 47.574 32.234 47.5767 32.0096 47.5789C32.007 46.7706 32.002 43.4512 32.0006 42.6094H32.5922C34.2861 42.6094 34.4178 44.5139 34.4178 45.0977C34.4178 46.3132 33.8658 47.5494 32.6326 47.571Z" fill="white"/>
</svg>
