<svg width="98" height="98" viewBox="0 0 98 98" fill="none" xmlns="http://www.w3.org/2000/svg">
<circle opacity="0.7" cx="49" cy="49" r="49" fill="#3BF0DE"/>
<path d="M51.2137 64.6953C50.6851 64.6953 50.2567 65.1239 50.2567 65.6524V72.543C50.2567 73.0715 50.6851 73.5 51.2137 73.5C51.7422 73.5 52.1707 73.0714 52.1707 72.543V65.6524C52.1707 65.1238 51.7422 64.6953 51.2137 64.6953Z" fill="white"/>
<path d="M30.0537 71.15C29.7349 71.4392 29.3265 71.5859 28.84 71.5859C27.5024 71.5859 26.4141 70.4698 26.4141 69.0977C26.4141 67.7256 27.5024 66.6094 28.84 66.6094C29.2641 66.6094 29.681 66.723 30.0457 66.9378C30.501 67.2059 31.0878 67.0544 31.3561 66.599C31.6243 66.1436 31.4726 65.5569 31.0172 65.2887C30.3583 64.9005 29.6055 64.6954 28.84 64.6954C26.447 64.6953 24.5 66.6702 24.5 69.0977C24.5 71.5251 26.447 73.5 28.84 73.5C29.803 73.5 30.6674 73.1776 31.3398 72.5677C31.7313 72.2125 31.7607 71.6073 31.4056 71.2159C31.0505 70.8243 30.4453 70.7948 30.0537 71.15Z" fill="white"/>
<path d="M47.6874 64.7567C47.1858 64.5901 46.6441 64.8616 46.4774 65.3632L44.9719 69.8952L43.3902 65.3385C43.2168 64.8392 42.6716 64.5746 42.1722 64.7482C41.6729 64.9216 41.4086 65.4668 41.5819 65.9662L43.9401 72.7596C44.0976 73.2033 44.5183 73.4999 44.9885 73.4999H44.9958C45.469 73.4967 45.8893 73.1937 46.044 72.7392L48.2939 65.9666C48.4605 65.4651 48.189 64.9234 47.6874 64.7567Z" fill="white"/>
<path d="M37.0573 64.7025C35.2244 64.7025 33.7332 66.1937 33.7332 68.0266V70.1759C33.7332 72.0088 35.2244 73.4999 37.0573 73.4999C38.8902 73.4999 40.3814 72.0088 40.3814 70.1759V68.0266C40.3814 66.1937 38.8902 64.7025 37.0573 64.7025ZM38.4674 70.1759C38.4674 70.9533 37.8349 71.5858 37.0574 71.5858C36.2799 71.5858 35.6473 70.9533 35.6473 70.1759V68.0266C35.6473 67.2491 36.2798 66.6166 37.0574 66.6166C37.8349 66.6166 38.4674 67.2491 38.4674 68.0266V70.1759Z" fill="white"/>
<path d="M64.4127 64.6953H63.203C62.6744 64.6953 62.246 65.1239 62.246 65.6524C62.246 66.1809 62.6744 66.6094 63.203 66.6094H63.4557V72.543C63.4557 73.0715 63.8841 73.5 64.4127 73.5C64.9413 73.5 65.3697 73.0714 65.3697 72.543V65.6524C65.3697 65.1238 64.9413 64.6953 64.4127 64.6953Z" fill="white"/>
<path d="M73.5018 67.7014C73.5018 66.0749 72.1786 64.7517 70.5521 64.7517C68.9257 64.7517 67.6025 66.0749 67.6025 67.7014C67.6025 69.312 68.9005 70.6245 70.5053 70.6498C70.0019 71.3655 69.5132 71.7479 69.4968 71.7604C69.0761 72.0767 68.9894 72.6738 69.3039 73.0966C69.4917 73.3492 69.7803 73.4826 70.0725 73.4826C70.2711 73.4826 70.4713 73.4209 70.6429 73.2933C70.742 73.2196 73.0582 71.4608 73.4649 68.1658C73.4889 68.0145 73.5018 67.8594 73.5018 67.7014ZM69.5166 67.7014C69.5166 67.1303 69.9811 66.6658 70.5521 66.6658C71.1232 66.6658 71.5877 67.1303 71.5877 67.7014C71.5877 68.2724 71.1232 68.7369 70.5521 68.7369C69.9811 68.7369 69.5166 68.2724 69.5166 67.7014Z" fill="white"/>
<path d="M65.0084 41.3845C63.8622 41.3845 62.8818 42.1053 62.4952 43.1172H61.2993C61.1957 41.7557 60.8701 40.4346 60.3274 39.1785C60.1178 38.6933 59.5544 38.4699 59.0693 38.6795C58.5841 38.8891 58.3607 39.4524 58.5703 39.9376C59.1352 41.2452 59.4216 42.637 59.4216 44.0743C59.4216 46.609 58.5134 48.9354 57.0057 50.7459L56.403 50.1432C56.0293 49.7697 55.4233 49.7696 55.0496 50.1432C54.6759 50.5169 54.6758 51.1229 55.0495 51.4966L55.6522 52.0993C53.8417 53.607 51.5153 54.5152 48.9806 54.5152C46.4459 54.5152 44.1195 53.607 42.3091 52.0993L42.4027 52.0057C42.7764 51.632 42.7764 51.026 42.4027 50.6522C42.0289 50.2785 41.423 50.2785 41.0491 50.6522L40.9555 50.7458C39.4478 48.9353 38.5396 46.6089 38.5396 44.0742C38.5396 41.5395 39.4478 39.2132 40.9555 37.4027L41.7428 38.1899C41.9297 38.3768 42.1746 38.4702 42.4195 38.4702C42.6644 38.4702 42.9094 38.3768 43.0962 38.1899C43.4699 37.8162 43.4699 37.2102 43.0962 36.8364L42.309 36.0491C44.1195 34.5414 46.4458 33.6332 48.9805 33.6332C50.4031 33.6332 51.7817 33.914 53.0779 34.4677C53.5642 34.6753 54.1264 34.4495 54.334 33.9635C54.5416 33.4774 54.3159 32.9151 53.8298 32.7075C52.5874 32.1768 51.2819 31.858 49.9375 31.7556V30.5854C51.1899 30.1804 52.0984 29.0037 52.0984 27.6181C52.0984 25.8988 50.6996 24.5 48.9804 24.5C47.2611 24.5 45.8623 25.8988 45.8623 27.6181C45.8623 29.0036 46.7709 30.1804 48.0234 30.5854V31.756C45.335 31.9629 42.8852 33.0344 40.9514 34.6917L40.1897 33.93C40.3865 33.5326 40.4977 33.0856 40.4977 32.6129C40.4977 30.9706 39.1616 29.6344 37.5191 29.6344C35.8768 29.6344 34.5406 30.9706 34.5406 32.6129C34.5406 34.2553 35.8768 35.5915 37.5191 35.5915C37.9918 35.5915 38.4388 35.4803 38.8362 35.2835L39.5979 36.0452C37.9406 37.979 36.8691 40.4288 36.6622 43.1172H35.4658C35.0792 42.1053 34.0988 41.3845 32.9527 41.3845C31.4695 41.3845 30.2629 42.5911 30.2629 44.0742C30.2629 45.5573 31.4696 46.7639 32.9527 46.7639C34.0988 46.7639 35.0792 46.0431 35.4658 45.0312H36.6621C36.869 47.7196 37.9406 50.1694 39.5979 52.1032L38.1425 53.5586C37.7452 53.3618 37.2982 53.2506 36.8255 53.2506C35.1831 53.2506 33.8469 54.5867 33.8469 56.2291C33.8469 57.8714 35.1831 59.2076 36.8255 59.2076C38.4678 59.2076 39.804 57.8714 39.804 56.2291C39.804 55.7564 39.6928 55.3094 39.4961 54.912L40.9514 53.4566C42.8853 55.1139 45.335 56.1854 48.0234 56.3923V57.5887C47.0114 57.9754 46.2907 58.9558 46.2907 60.1019C46.2907 61.585 47.4973 62.7916 48.9804 62.7916C50.4635 62.7916 51.6702 61.585 51.6702 60.1019C51.6702 58.9557 50.9493 57.9754 49.9375 57.5887V56.3923C52.6258 56.1854 55.0756 55.1138 57.0094 53.4566L57.7078 54.1551C57.511 54.5524 57.3998 54.9995 57.3998 55.4721C57.3998 57.1145 58.736 58.4507 60.3784 58.4507C62.0207 58.4507 63.3569 57.1145 63.3569 55.4721C63.3569 53.8298 62.0208 52.4937 60.3784 52.4937C59.9057 52.4937 59.4587 52.6049 59.0613 52.8017L58.3629 52.1032C60.0201 50.1694 61.0916 47.7196 61.2985 45.0312H62.4948C62.8815 46.0432 63.8619 46.7639 65.0081 46.7639C66.4912 46.7639 67.6978 45.5573 67.6978 44.0742C67.698 42.591 66.4915 41.3845 65.0084 41.3845ZM48.9806 26.4142C49.6445 26.4142 50.1846 26.9543 50.1846 27.6182C50.1846 28.2821 49.6445 28.8222 48.9806 28.8222C48.3167 28.8222 47.7766 28.2821 47.7766 27.6182C47.7766 26.9543 48.3167 26.4142 48.9806 26.4142ZM37.5193 33.6774C36.9324 33.6774 36.4548 33.1999 36.4548 32.6129C36.4548 32.026 36.9324 31.5484 37.5193 31.5484C38.1063 31.5484 38.5838 32.026 38.5838 32.6129C38.5838 33.1999 38.1063 33.6774 37.5193 33.6774ZM32.9529 44.8499C32.5252 44.8499 32.1772 44.5019 32.1772 44.0742C32.1772 43.6465 32.5252 43.2985 32.9529 43.2985C33.3806 43.2985 33.7285 43.6465 33.7285 44.0742C33.7285 44.5019 33.3807 44.8499 32.9529 44.8499ZM36.8258 57.2936C36.2388 57.2936 35.7613 56.816 35.7613 56.2291C35.7613 55.6421 36.2388 55.1647 36.8258 55.1647C37.4127 55.1647 37.8903 55.6421 37.8903 56.2291C37.8902 56.816 37.4126 57.2936 36.8258 57.2936ZM48.9806 60.8776C48.5529 60.8776 48.2049 60.5297 48.2049 60.102C48.2049 59.6743 48.5529 59.3263 48.9806 59.3263C49.4083 59.3263 49.7563 59.6743 49.7563 60.102C49.7563 60.5297 49.4083 60.8776 48.9806 60.8776ZM60.3785 54.4077C60.9655 54.4077 61.4431 54.8852 61.4431 55.4721C61.4431 56.0591 60.9655 56.5367 60.3785 56.5367C59.7916 56.5367 59.314 56.0591 59.314 55.4721C59.314 54.8852 59.7916 54.4077 60.3785 54.4077ZM65.0084 44.8499C64.5807 44.8499 64.2326 44.5019 64.2326 44.0742C64.2326 43.6465 64.5806 43.2985 65.0084 43.2985C65.4361 43.2985 65.784 43.6465 65.784 44.0742C65.7839 44.5019 65.4361 44.8499 65.0084 44.8499Z" fill="white"/>
<path d="M40.769 44.0742C40.769 45.7166 42.1052 47.0528 43.7475 47.0528C45.3899 47.0528 46.7261 45.7166 46.7261 44.0742C46.7261 42.4319 45.3899 41.0957 43.7475 41.0957C42.1052 41.0957 40.769 42.4318 40.769 44.0742ZM44.812 44.0742C44.812 44.6612 44.3344 45.1387 43.7474 45.1387C43.1605 45.1387 42.6829 44.6612 42.6829 44.0742C42.6829 43.4873 43.1605 43.0097 43.7474 43.0097C44.3344 43.0097 44.812 43.4873 44.812 44.0742Z" fill="white"/>
<path d="M51.0143 37.0526C49.3719 37.0526 48.0357 38.3887 48.0357 40.0312C48.0357 41.6735 49.3718 43.0097 51.0143 43.0097C52.6566 43.0097 53.9928 41.6735 53.9928 40.0312C53.9928 38.3888 52.6566 37.0526 51.0143 37.0526ZM51.0143 41.0957C50.4273 41.0957 49.9498 40.6181 49.9498 40.0312C49.9498 39.4442 50.4273 38.9666 51.0143 38.9666C51.6012 38.9666 52.0788 39.4442 52.0788 40.0312C52.0788 40.6181 51.6013 41.0957 51.0143 41.0957Z" fill="white"/>
<path d="M50.1872 46.3288C48.5448 46.3288 47.2086 47.6649 47.2086 49.3073C47.2086 50.9496 48.5448 52.2858 50.1872 52.2858C51.8295 52.2858 53.1656 50.9496 53.1656 49.3073C53.1656 47.665 51.8295 46.3288 50.1872 46.3288ZM50.1872 50.3719C49.6002 50.3719 49.1227 49.8943 49.1227 49.3074C49.1227 48.7204 49.6002 48.2429 50.1872 48.2429C50.7741 48.2429 51.2516 48.7205 51.2516 49.3074C51.2516 49.8943 50.7741 50.3719 50.1872 50.3719Z" fill="white"/>
<path d="M61.5138 34.5195C63.1562 34.5195 64.4924 33.1834 64.4924 31.541C64.4924 29.8985 63.1562 28.5624 61.5138 28.5624C59.8714 28.5624 58.5353 29.8986 58.5353 31.541C58.5353 33.1833 59.8714 34.5195 61.5138 34.5195ZM61.5138 30.4766C62.1008 30.4766 62.5783 30.9541 62.5783 31.5411C62.5783 32.128 62.1008 32.6056 61.5138 32.6056C60.9269 32.6056 60.4494 32.128 60.4494 31.5411C60.4493 30.954 60.9269 30.4766 61.5138 30.4766Z" fill="white"/>
<path d="M57.0237 36.9559C57.2754 36.9559 57.5223 36.8535 57.7004 36.6755C57.8784 36.4975 57.9808 36.2505 57.9808 35.9979C57.9808 35.7462 57.8784 35.4992 57.7004 35.3212C57.5223 35.1432 57.2754 35.0408 57.0237 35.0408C56.772 35.0408 56.5251 35.1432 56.3471 35.3212C56.1691 35.4992 56.0667 35.7462 56.0667 35.9979C56.0667 36.2505 56.1691 36.4975 56.3471 36.6755C56.5251 36.8534 56.772 36.9559 57.0237 36.9559Z" fill="white"/>
<path d="M56.5922 64.6953H55.0418C54.7877 64.6953 54.544 64.7965 54.3644 64.9763C54.1849 65.1562 54.0843 65.4001 54.0848 65.6542V72.5464C54.0857 72.8005 54.2016 73.0438 54.382 73.2227C54.5613 73.4004 54.8035 73.5 55.0558 73.5H55.0608C55.1033 73.4997 56.11 73.4944 56.666 73.4847C58.7901 73.4476 60.3318 71.6025 60.3318 69.0977C60.3319 66.4645 58.8291 64.6953 56.5922 64.6953ZM56.6326 71.571C56.4581 71.574 56.234 71.5767 56.0096 71.5789C56.007 70.7706 56.002 67.4512 56.0006 66.6094H56.5922C58.2861 66.6094 58.4178 68.5139 58.4178 69.0977C58.4178 70.3132 57.8658 71.5494 56.6326 71.571Z" fill="white"/>
</svg>
