<svg width="100" height="100" viewBox="0 0 100 100" fill="none" xmlns="http://www.w3.org/2000/svg">
<circle opacity="0.7" cx="50" cy="50" r="50" fill="#3BF0DE"/>
<path d="M62.8125 29.375C61.959 29.375 61.1588 29.6054 60.4688 30.0057V29.375C60.4688 26.7903 58.3659 24.6875 55.7812 24.6875C54.9278 24.6875 54.1275 24.9179 53.4375 25.3182V24.6875C53.4375 22.1028 51.3347 20 48.75 20C46.1653 20 44.0625 22.1028 44.0625 24.6875V25.3182C43.3725 24.9179 42.5722 24.6875 41.7188 24.6875C39.1341 24.6875 37.0312 26.7903 37.0312 29.375V44.2668C35.5411 42.7442 33.4655 41.7969 31.1719 41.7969C30.5248 41.7969 30 42.3216 30 42.9688V61.7188C30 65.02 31.577 68.1743 34.2188 70.1562L36.0936 71.5624C37.995 72.9889 39.375 76.0446 39.375 78.8281C39.375 79.4752 39.8998 80 40.5469 80H45.8203C46.4674 80 46.9922 79.4752 46.9922 78.8281C46.9922 78.181 46.4674 77.6562 45.8203 77.6562H41.6555C41.3629 74.8753 40.0457 71.5974 37.5 69.6875L35.6251 68.2814C33.5705 66.7398 32.3438 64.2864 32.3438 61.7188V44.2584C35.0149 44.8029 37.0312 47.1705 37.0312 50V57.0312C37.0312 57.6784 37.556 58.2031 38.2031 58.2031C39.4942 58.2031 40.7641 58.507 41.9066 59.0851C42.6158 62.0463 45.2986 64.334 49.0759 67.5522C49.8479 68.21 50.6462 68.8903 51.4942 69.632C51.715 69.8253 51.9902 69.9219 52.2656 69.9219C52.541 69.9219 52.8163 69.8253 53.0372 69.632C53.885 68.8903 54.6834 68.21 55.4555 67.5522C59.8856 63.7776 62.8125 61.284 62.8125 57.4813C62.8125 54.0212 60.3578 51.1719 56.9531 51.1719C54.6253 51.1719 53.1488 52.5009 52.2656 53.7846C51.3825 52.5009 49.9059 51.1719 47.5781 51.1719C44.5162 51.1719 42.2105 53.4788 41.7889 56.4861C41.0108 56.2053 40.2004 56.0165 39.375 55.9245C39.375 55.2155 39.375 30.0948 39.375 29.375C39.375 28.0827 40.4264 27.0312 41.7188 27.0312C43.0111 27.0312 44.0625 28.0827 44.0625 29.375V45.3125C44.0625 45.9596 44.5873 46.4844 45.2344 46.4844C45.8815 46.4844 46.4062 45.9596 46.4062 45.3125V24.6875C46.4062 23.3952 47.4577 22.3438 48.75 22.3438C50.0423 22.3438 51.0938 23.3952 51.0938 24.6875V45.3125C51.0938 45.9596 51.6185 46.4844 52.2656 46.4844C52.9127 46.4844 53.4375 45.9596 53.4375 45.3125V29.375C53.4375 28.0827 54.4889 27.0312 55.7812 27.0312C57.0736 27.0312 58.125 28.0827 58.125 29.375V45.3125C58.125 45.9596 58.6498 46.4844 59.2969 46.4844C59.944 46.4844 60.4688 45.9596 60.4688 45.3125V34.0625C60.4688 32.7702 61.5202 31.7188 62.8125 31.7188C64.1048 31.7188 65.1562 32.7702 65.1562 34.0625V61.884C65.1562 64.5148 64.4092 67.0787 62.9958 69.2983C61.6175 71.4629 60.6772 74.6502 60.4993 77.6562H56.3672C55.7201 77.6562 55.1953 78.181 55.1953 78.8281C55.1953 79.4752 55.7201 80 56.3672 80H61.6406C62.2877 80 62.8125 79.4752 62.8125 78.8281V78.6746C62.8125 75.8045 63.6605 72.6181 64.973 70.557C66.6261 67.9607 67.5 64.9616 67.5 61.884V34.0625C67.5 31.4778 65.3972 29.375 62.8125 29.375ZM47.5781 53.5156C50.1884 53.5156 51.0989 56.6261 51.1366 56.7597C51.2777 57.2663 51.7393 57.6172 52.2656 57.6172C52.7934 57.6172 53.2561 57.2643 53.3958 56.7554C53.4047 56.7228 54.3148 53.5156 56.9531 53.5156C58.9574 53.5156 60.4688 55.2205 60.4688 57.4813C60.4688 60.2018 58.0097 62.2971 53.9354 65.7683C53.3948 66.2289 52.8414 66.7004 52.2656 67.1976C51.6899 66.7004 51.1364 66.2288 50.5958 65.7683C46.5216 62.2971 44.0625 60.2018 44.0625 57.4813C44.0625 55.2205 45.5739 53.5156 47.5781 53.5156Z" fill="white"/>
</svg>
