<svg width="100" height="100" viewBox="0 0 100 100" fill="none" xmlns="http://www.w3.org/2000/svg">
<circle opacity="0.7" cx="50" cy="50" r="50" fill="#3BF0DE"/>
<path d="M68.3525 31.25C68.3525 26.9005 65.5063 20 57.8688 20C54.7308 20 52.0911 21.4794 50 24.4036C47.9089 21.4794 45.2691 20 42.1313 20C34.4936 20 31.6475 26.9005 31.6475 31.25C31.6475 38.7491 37.5003 43.44 45.4959 50.2771C46.6708 51.2816 47.8856 52.3205 49.1809 53.4442C49.4159 53.6481 49.7079 53.75 50 53.75C50.2921 53.75 50.5841 53.6481 50.8191 53.4442C52.1144 52.3205 53.3293 51.2816 54.5041 50.2771C62.8749 43.1193 68.3525 38.5906 68.3525 31.25ZM50 50.847C49.0011 49.985 48.0485 49.1704 47.1206 48.3769C38.7554 41.224 34.1475 37.2838 34.1475 31.25C34.1475 27.1571 36.8251 22.5 42.1313 22.5C44.9004 22.5 47.1155 24.09 48.9033 27.3608C49.1224 27.7618 49.543 28.0112 50 28.0112C50.457 28.0112 50.8776 27.7618 51.0968 27.3608C52.8845 24.09 55.0996 22.5 57.8688 22.5C63.1008 22.5 65.8525 27.088 65.8525 31.25C65.8525 37.2838 61.2446 41.224 52.8794 48.377C51.9515 49.1704 50.9989 49.985 50 50.847Z" fill="white"/>
<path d="M26.9823 69.0143L33 72.0226V78.75C33 79.4403 33.5597 80 34.25 80H47.5C48.1903 80 48.75 79.4403 48.75 78.75V62.4313C48.75 58.6015 45.8771 55.4256 42.0769 55.0446L41.9746 55.0336C39.775 54.8131 35.8802 53.3086 34.3424 51.7709L31.5351 48.9648C30.5905 48.0203 29.3351 47.5 28 47.5V37.5C28 34.743 25.757 32.5 23 32.5C20.243 32.5 18 34.743 18 37.5V54.48C18 60.6318 21.4748 66.2599 26.9823 69.0143ZM20.5 37.5C20.5 36.1215 21.6215 35 23 35C24.3785 35 25.5 36.1215 25.5 37.5V48.1701C23.9755 49.0516 23 50.6951 23 52.5C23 53.8351 23.5203 55.0905 24.4649 56.035L30.8661 62.4375C31.3541 62.9258 32.1456 62.9258 32.6339 62.4376C33.122 61.9496 33.1221 61.1581 32.634 60.6699L26.2327 54.2673C25.7601 53.7949 25.5 53.1672 25.5 52.5C25.5 51.442 26.1696 50.4945 27.1665 50.1424C27.1666 50.1424 27.1669 50.1423 27.167 50.1421C27.1672 50.142 27.1676 50.142 27.1679 50.1419C28.0301 49.8359 29.0529 50.0181 29.7675 50.7329L32.5747 53.539C35.473 56.4373 41.8051 57.5278 41.8178 57.5312C44.3445 57.7845 46.2499 59.8911 46.2499 62.4313V77.5H35.4999V71.25C35.4999 70.7765 35.2322 70.3436 34.8089 70.132L28.1003 66.7783C23.4124 64.4336 20.5 59.7212 20.5 54.48V37.5Z" fill="white"/>
<path d="M73.7677 69.5143L67.75 72.5226V79.25C67.75 79.9403 67.1903 80.5 66.5 80.5H53.25C52.5597 80.5 52 79.9403 52 79.25V62.9313C52 59.1015 54.8729 55.9256 58.6731 55.5446L58.7754 55.5336C60.975 55.3131 64.8698 53.8086 66.4076 52.2709L69.2149 49.4648C70.1595 48.5203 71.4149 48 72.75 48V38C72.75 35.243 74.993 33 77.75 33C80.507 33 82.75 35.243 82.75 38V54.98C82.75 61.1318 79.2752 66.7599 73.7677 69.5143ZM80.25 38C80.25 36.6215 79.1285 35.5 77.75 35.5C76.3715 35.5 75.25 36.6215 75.25 38V48.6701C76.7745 49.5516 77.75 51.1951 77.75 53C77.75 54.3351 77.2297 55.5905 76.2851 56.535L69.8839 62.9375C69.3959 63.4258 68.6044 63.4258 68.1161 62.9376C67.628 62.4496 67.6279 61.6581 68.116 61.1699L74.5173 54.7673C74.9899 54.2949 75.25 53.6672 75.25 53C75.25 51.942 74.5804 50.9945 73.5835 50.6424C73.5834 50.6424 73.5831 50.6423 73.583 50.6421C73.5828 50.642 73.5824 50.642 73.5821 50.6419C72.7199 50.3359 71.6971 50.5181 70.9825 51.2329L68.1753 54.039C65.277 56.9373 58.9449 58.0278 58.9322 58.0312C56.4055 58.2845 54.5001 60.3911 54.5001 62.9313V78H65.2501V71.75C65.2501 71.2765 65.5178 70.8436 65.9411 70.632L72.6497 67.2783C77.3376 64.9336 80.25 60.2212 80.25 54.98V38Z" fill="white"/>
</svg>
