<svg width="99" height="138" viewBox="0 0 99 138" fill="none" xmlns="http://www.w3.org/2000/svg">
<path d="M98.472 9.76016V112.421C98.472 117.62 94.7891 121.834 90.2439 121.834H23.4418C22.3482 121.82 21.2699 121.574 20.2784 121.113C19.2869 120.651 18.4047 119.984 17.6902 119.156C17.5585 119.01 17.431 118.855 17.3078 118.694L15.7319 115.716C15.3863 114.652 15.2114 113.54 15.2136 112.421V9.76016C15.2136 4.56051 18.8965 0.347412 23.4418 0.347412H90.2439C91.6658 0.350591 93.0567 0.763972 94.2496 1.53796C94.2539 1.53796 94.2539 1.54283 94.2539 1.54283C94.269 1.54907 94.2833 1.55724 94.2963 1.56715C95.6158 2.48078 96.688 3.70751 97.4167 5.1374C98.1455 6.5673 98.5081 8.15567 98.472 9.76016Z" fill="#E6EEFF"/>
<path d="M72.56 12.496H44.524V15.8976H72.56V12.496Z" fill="#BEDBFC"/>
<path d="M91.3507 30.7676H21.7931V33.1973H91.3507V30.7676Z" fill="#D3E3F6"/>
<path d="M91.3507 25.7029H21.7931V28.1327H91.3507V25.7029Z" fill="#D3E3F6"/>
<path d="M74.7639 35.1411H21.7931V37.0849H74.7639V35.1411Z" fill="#D3E3F6"/>
<path d="M91.3507 41.9443H21.7931V44.3741H91.3507V41.9443Z" fill="#D3E3F6"/>
<path d="M74.7639 46.3177H21.7931V48.2615H74.7639V46.3177Z" fill="#D3E3F6"/>
<path d="M91.9832 54.244H22.4256V56.6737H91.9832V54.244Z" fill="#D3E3F6"/>
<path d="M75.3964 58.6176H22.4256V60.5613H75.3964V58.6176Z" fill="#D3E3F6"/>
<path d="M87.4275 65.464H79.3566V71.7813H87.4275V65.464Z" fill="#BEDBFC"/>
<path d="M19.739 90.8826H14.8884C14.4315 90.9074 14.0029 91.1114 13.6956 91.4504C13.3883 91.7894 13.2271 92.2359 13.2471 92.6929V93.2939C13.2451 93.5654 13.3022 93.8341 13.4145 94.0813C13.5267 94.3285 13.6914 94.5483 13.8971 94.7255C13.8835 94.8134 13.8754 94.902 13.8727 94.9909V121.916C13.8727 124.004 15.4211 125.712 17.3137 125.712C19.2062 125.712 20.7546 124.004 20.7546 121.916V94.7032C20.9529 94.5262 21.1113 94.3089 21.2191 94.0659C21.327 93.8229 21.3819 93.5597 21.3802 93.2939V92.693C21.4002 92.2359 21.239 91.7894 20.9317 91.4504C20.6244 91.1114 20.1958 90.9074 19.739 90.8826Z" fill="#B4D1ED"/>
<path d="M34.2112 90.8826H29.3606C28.9038 90.9074 28.4752 91.1114 28.1679 91.4504C27.8606 91.7894 27.6994 92.2359 27.7193 92.6929V93.2939C27.7174 93.5654 27.7745 93.8341 27.8867 94.0813C27.999 94.3285 28.1637 94.5483 28.3694 94.7255C28.3558 94.8134 28.3476 94.902 28.345 94.9909V121.916C28.345 124.004 29.8934 125.712 31.7859 125.712C33.6784 125.712 35.2269 124.004 35.2269 121.916V94.7032C35.4252 94.5262 35.5835 94.3089 35.6914 94.0659C35.7993 93.8229 35.8542 93.5597 35.8525 93.2939V92.693C35.8725 92.2359 35.7113 91.7894 35.404 91.4504C35.0967 91.1114 34.6681 90.9074 34.2112 90.8826Z" fill="#B4D1ED"/>
<path d="M48.6835 90.8826H43.8329C43.376 90.9074 42.9474 91.1114 42.6401 91.4504C42.3328 91.7894 42.1716 92.2359 42.1916 92.6929V93.2939C42.1896 93.5654 42.2467 93.8341 42.359 94.0813C42.4712 94.3285 42.6359 94.5483 42.8417 94.7255C42.828 94.8134 42.8199 94.902 42.8172 94.9909V121.916C42.8172 124.004 44.3657 125.712 46.2582 125.712C48.1507 125.712 49.6991 124.004 49.6991 121.916V94.7032C49.8974 94.5262 50.0558 94.3089 50.1637 94.0659C50.2715 93.8229 50.3264 93.5597 50.3248 93.2939V92.693C50.3447 92.2359 50.1835 91.7894 49.8762 91.4504C49.5689 91.1114 49.1403 90.9074 48.6835 90.8826Z" fill="#B4D1ED"/>
<path d="M77.628 90.8826H72.7773C72.3205 90.9074 71.8919 91.1114 71.5846 91.4504C71.2773 91.7894 71.1161 92.2359 71.1361 92.6929V93.2939C71.1341 93.5654 71.1912 93.8341 71.3035 94.0813C71.4157 94.3285 71.5804 94.5483 71.7861 94.7255C71.7725 94.8134 71.7644 94.902 71.7617 94.9909V121.916C71.7617 124.004 73.3102 125.712 75.2027 125.712C77.0952 125.712 78.6436 124.004 78.6436 121.916V94.7032C78.8419 94.5262 79.0003 94.3089 79.1081 94.0659C79.216 93.8229 79.2709 93.5597 79.2692 93.2939V92.693C79.2892 92.2359 79.128 91.7894 78.8207 91.4504C78.5134 91.1114 78.0848 90.9074 77.628 90.8826Z" fill="#B4D1ED"/>
<path d="M63.1557 90.8826H58.3051C57.8483 90.9074 57.4197 91.1114 57.1124 91.4504C56.8051 91.7894 56.6439 92.2359 56.6639 92.6929V93.2939C56.6619 93.5654 56.719 93.8341 56.8312 94.0813C56.9435 94.3285 57.1082 94.5483 57.3139 94.7255C57.3003 94.8134 57.2921 94.902 57.2895 94.9909V121.916C57.2895 124.004 58.8379 125.712 60.7304 125.712C62.623 125.712 64.1714 124.004 64.1714 121.916V94.7032C64.3697 94.5262 64.528 94.3089 64.6359 94.0659C64.7438 93.8229 64.7987 93.5597 64.797 93.2939V92.693C64.817 92.2359 64.6558 91.7894 64.3485 91.4504C64.0412 91.1114 63.6126 90.9074 63.1557 90.8826Z" fill="#B4D1ED"/>
<path d="M3.34819 32.8473L1.43481 34.7478L38.8887 72.4554L40.8021 70.5549L3.34819 32.8473Z" fill="url(#paint0_linear)"/>
<path d="M35.4968 65.1804L33.7085 66.9567C33.3658 67.297 33.364 67.8506 33.7043 68.1933L52.3727 86.9882C52.713 87.3308 53.2667 87.3327 53.6093 86.9923L55.3976 85.2161C55.7403 84.8757 55.7421 84.3221 55.4018 83.9795L36.7334 65.1846C36.393 64.8419 35.8394 64.8401 35.4968 65.1804Z" fill="white" stroke="#BEDBFC" stroke-miterlimit="10"/>
<path d="M12.2997 104.677H81.6519C83.8114 104.677 85.8825 105.534 87.4096 107.061C88.9366 108.588 89.7945 110.66 89.7945 112.819V134.128C89.7945 134.193 89.7686 134.256 89.7224 134.302C89.6762 134.348 89.6136 134.374 89.5483 134.374H5.49509C5.14023 134.374 4.7999 134.233 4.54897 133.982C4.29804 133.731 4.15707 133.391 4.15707 133.036V112.819C4.15707 111.75 4.36769 110.691 4.77689 109.703C5.1861 108.715 5.78588 107.818 6.542 107.061C7.29811 106.305 8.19575 105.706 9.18366 105.296C10.1716 104.887 11.2304 104.677 12.2997 104.677V104.677Z" stroke="url(#paint1_linear)" stroke-width="6.45493" stroke-miterlimit="10"/>
<defs>
<linearGradient id="paint0_linear" x1="20.1623" y1="53.6" x2="22.0757" y2="51.6996" gradientUnits="userSpaceOnUse">
<stop stop-color="#3EAFA4"/>
<stop offset="1" stop-color="#2AD1AA"/>
</linearGradient>
<linearGradient id="paint1_linear" x1="4203.26" y1="7846.07" x2="18499" y2="7846.07" gradientUnits="userSpaceOnUse">
<stop stop-color="#3EAFA4"/>
<stop offset="1" stop-color="#2AD1AA"/>
</linearGradient>
</defs>
</svg>
